<svg width="400" height="300" viewBox="0 0 400 300" fill="none" xmlns="http://www.w3.org/2000/svg">
<rect width="400" height="300" fill="#F2F2F2"/>
<rect width="400" height="300"/>
<path d="M248.75 105H151.25C145.037 105 140 109.995 140 116.157V183.099C140 189.261 145.037 194.256 151.25 194.256H248.75C254.963 194.256 260 189.261 260 183.099V116.157C260 109.995 254.963 105 248.75 105ZM252.5 183.099C252.5 185.15 250.818 186.818 248.75 186.818H151.25C149.182 186.818 147.5 185.15 147.5 183.099V116.157C147.5 114.106 149.182 112.438 151.25 112.438H248.75C250.818 112.438 252.5 114.106 252.5 116.157V183.099ZM166.25 144.05C173.499 144.05 179.375 138.222 179.375 131.033C179.375 123.844 173.499 118.017 166.25 118.017C159.001 118.017 153.125 123.844 153.125 131.033C153.125 138.222 159.001 144.05 166.25 144.05ZM166.25 125.455C169.352 125.455 171.875 127.957 171.875 131.033C171.875 134.109 169.352 136.612 166.25 136.612C163.148 136.612 160.625 134.109 160.625 131.033C160.625 127.957 163.148 125.455 166.25 125.455ZM214.772 130.807L192.5 152.896L185.228 145.684C183.031 143.505 179.469 143.505 177.273 145.684L156.648 166.138C156.125 166.656 155.711 167.271 155.428 167.948C155.146 168.625 155 169.35 155 170.083V176.591C155 178.131 156.259 179.38 157.812 179.38H242.188C243.741 179.38 245 178.131 245 176.591V155.207C245 153.727 244.407 152.308 243.353 151.262L222.728 130.807C220.531 128.629 216.969 128.629 214.772 130.807ZM237.5 171.942H162.5V170.853L181.25 152.258L192.5 163.415L218.75 137.382L237.5 155.977V171.942Z" fill="black" fill-opacity="0.06"/>
<path d="M248.75 105H151.25C145.037 105 140 109.995 140 116.157V183.099C140 189.261 145.037 194.256 151.25 194.256H248.75C254.963 194.256 260 189.261 260 183.099V116.157C260 109.995 254.963 105 248.75 105ZM252.5 183.099C252.5 185.15 250.818 186.818 248.75 186.818H151.25C149.182 186.818 147.5 185.15 147.5 183.099V116.157C147.5 114.106 149.182 112.438 151.25 112.438H248.75C250.818 112.438 252.5 114.106 252.5 116.157V183.099ZM166.25 144.05C173.499 144.05 179.375 138.222 179.375 131.033C179.375 123.844 173.499 118.017 166.25 118.017C159.001 118.017 153.125 123.844 153.125 131.033C153.125 138.222 159.001 144.05 166.25 144.05ZM166.25 125.455C169.352 125.455 171.875 127.957 171.875 131.033C171.875 134.109 169.352 136.612 166.25 136.612C163.148 136.612 160.625 134.109 160.625 131.033C160.625 127.957 163.148 125.455 166.25 125.455ZM214.772 130.807L192.5 152.896L185.228 145.684C183.031 143.505 179.469 143.505 177.273 145.684L156.648 166.138C156.125 166.656 155.711 167.271 155.428 167.948C155.146 168.625 155 169.35 155 170.083V176.591C155 178.131 156.259 179.38 157.812 179.38H242.188C243.741 179.38 245 178.131 245 176.591V155.207C245 153.727 244.407 152.308 243.353 151.262L222.728 130.807C220.531 128.629 216.969 128.629 214.772 130.807ZM237.5 171.942H162.5V170.853L181.25 152.258L192.5 163.415L218.75 137.382L237.5 155.977V171.942Z"/>
</svg>
