<svg width="400" height="400" viewBox="0 0 400 400" fill="none" xmlns="http://www.w3.org/2000/svg">
<rect width="400" height="400" fill="#F1F1F1"/>
<rect width="400" height="400"/>
<path d="M248.75 155H151.25C145.037 155 140 159.995 140 166.157V233.099C140 239.261 145.037 244.256 151.25 244.256H248.75C254.963 244.256 260 239.261 260 233.099V166.157C260 159.995 254.963 155 248.75 155ZM252.5 233.099C252.5 235.15 250.818 236.818 248.75 236.818H151.25C149.182 236.818 147.5 235.15 147.5 233.099V166.157C147.5 164.106 149.182 162.438 151.25 162.438H248.75C250.818 162.438 252.5 164.106 252.5 166.157V233.099ZM166.25 194.05C173.499 194.05 179.375 188.222 179.375 181.033C179.375 173.844 173.499 168.017 166.25 168.017C159.001 168.017 153.125 173.844 153.125 181.033C153.125 188.222 159.001 194.05 166.25 194.05ZM166.25 175.455C169.352 175.455 171.875 177.957 171.875 181.033C171.875 184.109 169.352 186.612 166.25 186.612C163.148 186.612 160.625 184.109 160.625 181.033C160.625 177.957 163.148 175.455 166.25 175.455ZM214.772 180.807L192.5 202.896L185.228 195.684C183.031 193.505 179.469 193.505 177.273 195.684L156.648 216.138C156.125 216.656 155.711 217.271 155.428 217.948C155.146 218.625 155 219.35 155 220.083V226.591C155 228.131 156.259 229.38 157.812 229.38H242.188C243.741 229.38 245 228.131 245 226.591V205.207C245 203.727 244.407 202.308 243.353 201.262L222.728 180.807C220.531 178.629 216.969 178.629 214.772 180.807ZM237.5 221.942H162.5V220.853L181.25 202.258L192.5 213.415L218.75 187.382L237.5 205.977V221.942Z" fill="black" fill-opacity="0.06"/>
<path d="M248.75 155H151.25C145.037 155 140 159.995 140 166.157V233.099C140 239.261 145.037 244.256 151.25 244.256H248.75C254.963 244.256 260 239.261 260 233.099V166.157C260 159.995 254.963 155 248.75 155ZM252.5 233.099C252.5 235.15 250.818 236.818 248.75 236.818H151.25C149.182 236.818 147.5 235.15 147.5 233.099V166.157C147.5 164.106 149.182 162.438 151.25 162.438H248.75C250.818 162.438 252.5 164.106 252.5 166.157V233.099ZM166.25 194.05C173.499 194.05 179.375 188.222 179.375 181.033C179.375 173.844 173.499 168.017 166.25 168.017C159.001 168.017 153.125 173.844 153.125 181.033C153.125 188.222 159.001 194.05 166.25 194.05ZM166.25 175.455C169.352 175.455 171.875 177.957 171.875 181.033C171.875 184.109 169.352 186.612 166.25 186.612C163.148 186.612 160.625 184.109 160.625 181.033C160.625 177.957 163.148 175.455 166.25 175.455ZM214.772 180.807L192.5 202.896L185.228 195.684C183.031 193.505 179.469 193.505 177.273 195.684L156.648 216.138C156.125 216.656 155.711 217.271 155.428 217.948C155.146 218.625 155 219.35 155 220.083V226.591C155 228.131 156.259 229.38 157.812 229.38H242.188C243.741 229.38 245 228.131 245 226.591V205.207C245 203.727 244.407 202.308 243.353 201.262L222.728 180.807C220.531 178.629 216.969 178.629 214.772 180.807ZM237.5 221.942H162.5V220.853L181.25 202.258L192.5 213.415L218.75 187.382L237.5 205.977V221.942Z"/>
</svg>
