<svg width="400" height="533" viewBox="0 0 400 533" fill="none" xmlns="http://www.w3.org/2000/svg">
<rect width="400" height="533" fill="#F1F1F1"/>
<rect width="400" height="533"/>
<path d="M248.75 221H151.25C145.037 221 140 225.995 140 232.157V299.099C140 305.261 145.037 310.256 151.25 310.256H248.75C254.963 310.256 260 305.261 260 299.099V232.157C260 225.995 254.963 221 248.75 221ZM252.5 299.099C252.5 301.15 250.818 302.818 248.75 302.818H151.25C149.182 302.818 147.5 301.15 147.5 299.099V232.157C147.5 230.106 149.182 228.438 151.25 228.438H248.75C250.818 228.438 252.5 230.106 252.5 232.157V299.099ZM166.25 260.05C173.499 260.05 179.375 254.222 179.375 247.033C179.375 239.844 173.499 234.017 166.25 234.017C159.001 234.017 153.125 239.844 153.125 247.033C153.125 254.222 159.001 260.05 166.25 260.05ZM166.25 241.455C169.352 241.455 171.875 243.957 171.875 247.033C171.875 250.109 169.352 252.612 166.25 252.612C163.148 252.612 160.625 250.109 160.625 247.033C160.625 243.957 163.148 241.455 166.25 241.455ZM214.772 246.807L192.5 268.896L185.228 261.684C183.031 259.505 179.469 259.505 177.273 261.684L156.648 282.138C156.125 282.656 155.711 283.271 155.428 283.948C155.146 284.625 155 285.35 155 286.083V292.591C155 294.131 156.259 295.38 157.812 295.38H242.188C243.741 295.38 245 294.131 245 292.591V271.207C245 269.727 244.407 268.308 243.353 267.262L222.728 246.807C220.531 244.629 216.969 244.629 214.772 246.807ZM237.5 287.942H162.5V286.853L181.25 268.258L192.5 279.415L218.75 253.382L237.5 271.977V287.942Z" fill="black" fill-opacity="0.06"/>
<path d="M248.75 221H151.25C145.037 221 140 225.995 140 232.157V299.099C140 305.261 145.037 310.256 151.25 310.256H248.75C254.963 310.256 260 305.261 260 299.099V232.157C260 225.995 254.963 221 248.75 221ZM252.5 299.099C252.5 301.15 250.818 302.818 248.75 302.818H151.25C149.182 302.818 147.5 301.15 147.5 299.099V232.157C147.5 230.106 149.182 228.438 151.25 228.438H248.75C250.818 228.438 252.5 230.106 252.5 232.157V299.099ZM166.25 260.05C173.499 260.05 179.375 254.222 179.375 247.033C179.375 239.844 173.499 234.017 166.25 234.017C159.001 234.017 153.125 239.844 153.125 247.033C153.125 254.222 159.001 260.05 166.25 260.05ZM166.25 241.455C169.352 241.455 171.875 243.957 171.875 247.033C171.875 250.109 169.352 252.612 166.25 252.612C163.148 252.612 160.625 250.109 160.625 247.033C160.625 243.957 163.148 241.455 166.25 241.455ZM214.772 246.807L192.5 268.896L185.228 261.684C183.031 259.505 179.469 259.505 177.273 261.684L156.648 282.138C156.125 282.656 155.711 283.271 155.428 283.948C155.146 284.625 155 285.35 155 286.083V292.591C155 294.131 156.259 295.38 157.812 295.38H242.188C243.741 295.38 245 294.131 245 292.591V271.207C245 269.727 244.407 268.308 243.353 267.262L222.728 246.807C220.531 244.629 216.969 244.629 214.772 246.807ZM237.5 287.942H162.5V286.853L181.25 268.258L192.5 279.415L218.75 253.382L237.5 271.977V287.942Z"/>
</svg>
