<svg width="400" height="400" viewBox="0 0 400 400" fill="none" xmlns="http://www.w3.org/2000/svg">
<rect width="400" height="400" fill="#F2F2F2"/>
<g clip-path="url(#clip0)">
<path d="M224 208.143C216.312 208.143 212.616 212.429 200 212.429C187.384 212.429 183.714 208.143 176 208.143C156.125 208.143 140 224.268 140 244.143V255.286C140 262.384 145.759 268.143 152.857 268.143H247.143C254.241 268.143 260 262.384 260 255.286V244.143C260 224.268 243.875 208.143 224 208.143ZM251.429 255.286C251.429 257.643 249.5 259.571 247.143 259.571H152.857C150.5 259.571 148.571 257.643 148.571 255.286V244.143C148.571 229.009 160.866 216.714 176 216.714C181.25 216.714 186.473 221 200 221C213.5 221 218.75 216.714 224 216.714C239.134 216.714 251.429 229.009 251.429 244.143V255.286ZM200 199.571C218.937 199.571 234.286 184.223 234.286 165.286C234.286 146.348 218.937 131 200 131C181.062 131 165.714 146.348 165.714 165.286C165.714 184.223 181.062 199.571 200 199.571ZM200 139.571C214.17 139.571 225.714 151.116 225.714 165.286C225.714 179.455 214.17 191 200 191C185.83 191 174.286 179.455 174.286 165.286C174.286 151.116 185.83 139.571 200 139.571Z" fill="black" fill-opacity="0.06"/>
</g>
<defs>
<clipPath id="clip0">
<rect width="120" height="137.143" fill="white" transform="translate(140 131)"/>
</clipPath>
</defs>
</svg>
